<mxfile host="app.diagrams.net" agent="Mozilla/5.0 (Windows NT 10.0; Win64; x64) AppleWebKit/537.36 (KHTML, like Gecko) Chrome/137.0.0.0 Safari/537.36" version="28.0.4">
  <diagram name="Page-1" id="b98fa263-6416-c6ec-5b7d-78bf54ef71d0">
    <mxGraphModel dx="1678" dy="874" grid="1" gridSize="10" guides="1" tooltips="1" connect="1" arrows="1" fold="1" page="1" pageScale="1.5" pageWidth="1169" pageHeight="826" background="#ffffff" math="0" shadow="0">
      <root>
        <mxCell id="0" style=";html=1;" />
        <mxCell id="1" style=";html=1;" parent="0" />
        <mxCell id="sONiJ3JfSdFnRZ6K4tha-36" value="" style="rounded=0;whiteSpace=wrap;html=1;" vertex="1" parent="1">
          <mxGeometry x="295" y="240" width="105" height="520" as="geometry" />
        </mxCell>
        <mxCell id="sONiJ3JfSdFnRZ6K4tha-2" value="" style="rounded=0;whiteSpace=wrap;html=1;" vertex="1" parent="1">
          <mxGeometry x="430" y="340" width="580" height="420" as="geometry" />
        </mxCell>
        <mxCell id="sONiJ3JfSdFnRZ6K4tha-3" value="&lt;font face=&quot;Comic Sans MS&quot;&gt;&lt;b&gt;智慧物流园区数字孪生平台及系统建设第二标段&lt;/b&gt;&lt;/font&gt;" style="text;html=1;align=center;verticalAlign=middle;whiteSpace=wrap;rounded=0;fontFamily=Times New Roman;fontSize=20;" vertex="1" parent="1">
          <mxGeometry x="540" y="720" width="440" height="30" as="geometry" />
        </mxCell>
        <mxCell id="sONiJ3JfSdFnRZ6K4tha-11" value="&lt;font style=&quot;font-size: 16px;&quot;&gt;数据中台（第一标段内容）&lt;/font&gt;" style="rounded=0;whiteSpace=wrap;html=1;" vertex="1" parent="1">
          <mxGeometry x="430" y="240" width="580" height="60" as="geometry" />
        </mxCell>
        <mxCell id="sONiJ3JfSdFnRZ6K4tha-19" value="" style="edgeStyle=orthogonalEdgeStyle;rounded=0;orthogonalLoop=1;jettySize=auto;html=1;" edge="1" parent="1" source="sONiJ3JfSdFnRZ6K4tha-12" target="sONiJ3JfSdFnRZ6K4tha-13">
          <mxGeometry relative="1" as="geometry" />
        </mxCell>
        <mxCell id="sONiJ3JfSdFnRZ6K4tha-12" value="" style="rounded=0;whiteSpace=wrap;html=1;" vertex="1" parent="1">
          <mxGeometry x="480" y="370" width="160" height="310" as="geometry" />
        </mxCell>
        <mxCell id="sONiJ3JfSdFnRZ6K4tha-13" value="" style="rounded=0;whiteSpace=wrap;html=1;" vertex="1" parent="1">
          <mxGeometry x="680" y="370" width="300" height="310" as="geometry" />
        </mxCell>
        <mxCell id="sONiJ3JfSdFnRZ6K4tha-14" value="&lt;font style=&quot;font-size: 16px;&quot;&gt;GPU训练服务器&lt;/font&gt;" style="text;html=1;align=center;verticalAlign=middle;whiteSpace=wrap;rounded=0;" vertex="1" parent="1">
          <mxGeometry x="500" y="390" width="120" height="30" as="geometry" />
        </mxCell>
        <mxCell id="sONiJ3JfSdFnRZ6K4tha-15" value="&lt;font style=&quot;font-size: 16px;&quot;&gt;孪生应用服务器&lt;/font&gt;" style="text;html=1;align=center;verticalAlign=middle;whiteSpace=wrap;rounded=0;" vertex="1" parent="1">
          <mxGeometry x="740" y="390" width="150" height="30" as="geometry" />
        </mxCell>
        <mxCell id="sONiJ3JfSdFnRZ6K4tha-21" value="&lt;font style=&quot;font-size: 16px;&quot;&gt;yolov8&lt;/font&gt;" style="rounded=0;whiteSpace=wrap;html=1;dashed=1;" vertex="1" parent="1">
          <mxGeometry x="500" y="522.5" width="120" height="60" as="geometry" />
        </mxCell>
        <mxCell id="sONiJ3JfSdFnRZ6K4tha-27" value="&lt;span style=&quot;font-size: 16px;&quot;&gt;内网&lt;/span&gt;" style="text;html=1;align=center;verticalAlign=middle;whiteSpace=wrap;rounded=0;" vertex="1" parent="1">
          <mxGeometry x="295" y="720" width="120" height="30" as="geometry" />
        </mxCell>
        <mxCell id="sONiJ3JfSdFnRZ6K4tha-28" value="" style="rounded=0;whiteSpace=wrap;html=1;dashed=1;" vertex="1" parent="1">
          <mxGeometry x="710" y="460" width="240" height="50" as="geometry" />
        </mxCell>
        <mxCell id="sONiJ3JfSdFnRZ6K4tha-33" value="" style="endArrow=none;html=1;rounded=0;" edge="1" parent="1">
          <mxGeometry width="50" height="50" relative="1" as="geometry">
            <mxPoint x="240" y="520" as="sourcePoint" />
            <mxPoint x="290" y="519" as="targetPoint" />
          </mxGeometry>
        </mxCell>
        <mxCell id="sONiJ3JfSdFnRZ6K4tha-34" value="" style="group" vertex="1" connectable="0" parent="1">
          <mxGeometry x="160" y="485" width="80" height="135" as="geometry" />
        </mxCell>
        <mxCell id="sONiJ3JfSdFnRZ6K4tha-30" value="" style="shape=image;verticalLabelPosition=bottom;labelBackgroundColor=default;verticalAlign=top;aspect=fixed;imageAspect=0;image=data:image/png,iVBORw0KGgoAAAANSUhEUgAAAMgAAADICAYAAACtWK6eAAAAAXNSR0IArs4c6QAAC1dJREFUeF7tnV1y2zYQgMnYB7HfMiPlDKlPUvskTk5i5yRxzmBqJm9270GZ5abUVHEkilgBxBL7+aXtlPj7dj8BFEGorviDAASOEqhhAwEIHCeAIGQHBEYIIAjpAQEEIQcgoCPADKLjRiknBBDESaAZpo4Agui4UcoJAQRxEmiGqSOAIDpulHJCAEGcBJph6gggiI4bpZwQQBAngWaYOgIIouNGKScEEMRJoBmmjgCC6LhRygkBBHESaIapI4AgOm6UckIAQZwEmmHqCCQR5NOnT7dvb2+fq6r6S7pV1/WVrnuUgsA4ga7rXuu6fu1z7alt228/f/6Uf4/2F1UQEaPruodovaMiCIQTEFHuYokSRZCPHz9eXV5eihi/Zgz+IGCAwJcYM8rZgqzXa5HiuwEgdAEC7wmcPZucJcgwc7wQFwgYJvClaZqv2v6dJchqtXrhBlyLnnIzElBLohZkvV7f9wP8MuMgaQoCagL9/ci15sZdJQhLK3WcKJiPgGoWUQnC7JEvyrSsJ6CZRVSCrFarh/7hzK2+q5SEQBYCN03TPIW0rBKkn0G6kEa4FgJGCAQvsxDESOToRnoCXdc9bjabu5CWggVR3qDLtBY0tYUMgmt9Euj3Yd2GPGYwK0hd13fPz8+PPsPIqFMRWK/XsoMjZHvTU9M0NyH9mWUGQZCQkHDtVAIIMpUU17kkgCAuw86gpxJAkKmkuM4lAQTZC7tsqw/5xuJUxsibaG3b/nr7TLNH51T9Jf1/eREu1niEu9QVg717QYZXd+9jinEk0FFeromVRBbqkQ8keTt0Bvby9f/X0CfcwsitIDn2eskn23a7vWE2USVeDKeDX25yJ4iBV3eDgxQjMyzVkftcgZBHAq4EUT6hj55bIQGK3njmCq3EoMcwac+UK0EUg02STprtCEk6kqFSQ4LI6E/uvFXkzDKfpOe45xjJv2CIGXI5SZPG4iDfdI2+BehCEGOfWpXcrG82m+skGWi80tz3HwfwjC61XAhi7VNr6vrXeK6rumfxCKexWcSLINZevjq59lVl30IKWTupZuxLk+IFsba8kndWQrdDLyTvJ3fT2iwy9qVJ8YIYW/O6l2NnkSx7Q19Gmmxg+IVH41K8IEbuP57quv7GC12/Z+4wk4goVzNsNzmqzdiXJghyAJvctIV/CB0uwbaSaSRlKTztytNXXVxcyN66oM2P/dGhB1/sQ5ADvI/BOh0arrBAQLNqQJCAyCFIACyDlyLIgaAc+6ouJiyDuUCXDhCIGXOWWCyxipMMQZhBikvqmANCEASJmU/F1YUgCFJcUsccEIIgSMx8Kq4uBEGQ4pI65oAQBEFi5lNxdSEIghSX1DEHhCAIEjOfiqsLQRCkuKSOOSAEQZCY+VRcXQiCIMUldcwBIQiCxMyn4upCEAQpLqljDghBECRmPhVXF4IECBJ6aIPnQ91KMSVmzD28DyK/UCq/VDrpz/O5uZMALeCi0GOFXB/7I/EMPKhs0qnfC8gT112MFfPiZxDJkoA1KedWFaJVwDJrNOYuBNlJcuKgMuQoRI7dMCYcTncy5m4EGSSR+5HfDiqTm/L+0LLH/iSTr4XlB8P5b/VwVsxdCbKfMXJQGYe6+XJIE3O3gvhKDUarJYAgWnKUc0EAQVyEmUFqCSCIlhzlXBBAEBdhZpBaAgiiJUc5FwQQxEWYGaSWAIJoyVHOBQEEcRFmBqklgCBacpRzQQBBXISZQWoJIIiWHOVcEEAQF2FmkFoCCKIlRzkXBBDERZgZpJYAgmjJUc4FAQRxEWYGqSWAIFpylHNBAEFchJlBagkgiJYc5VwQQBAXYWaQWgIIoiVHORcEEMRFmBmklgCCaMlRzgUBl4LIua1vb2+f67p+rarqR9u2rxwiV3a+a2PuSpDVavXQS3F7IBWe2ra9Q5LyJBk5uHxSzN0IMmWgdV3fPT8/P5aXJj5HNCXm/Qripmmap2OEJtaxX/zkgdjv26pDwyNnqF5eXr6ElBtL7qk/fyAHWW+32xtmkhDyNq+NFfPiBVHIxg/o2Mz5yb2KGfPiBQn9Oa6qqoKnyMmR48JZCMSMuQdB7vuofAmJTP9bIcHLwpD6uTYtganLq/1eHIs5ghyIFYKkTeDUtSPIAcLHbtJjwkodWOqPQyBmzJlBmEHiZKWhWhCEGcRQOtrrCoIgiL2sNNQjBEEQQ+lorysIgiD2stJQjxAEQQylo72uIAiC2MtKQz1CEAQxlI72uoIgCGIvKw31CEEQxFA62usKgiCIvaw01CMEQRBD6WivKwiCIPay0lCPEARBDKWjva4gCILYy0pDPUIQBDGUjva6giCJBZH30iOHXc5g+sZpKX9S3TvQ7SoW867rruq6nlyfnGaz2WyuD7Vf/AtTEoCu6x5iwT+nHs7d+p+e4mCFc9CPlnUtiKVADFFyf6yQwZgcPcmm+BlEknK1Wr2ETLnJPqqGivvl1rXX5ZbizKrU4ZD6j35ouRBEMcikQfG81NLcQCcNRlVVYx9YitwJPlct+IwpzafMWNJZug+RYPc3kY+bzeYudeAt1m9NkLH7D+HnQhBry6xTQbGY2LH6pEi4WE0fq4fDq4WMzEoXFxffLdyLeJ5BRn6CIrUIf9Q/JQ4KoZe3xNqRMTS9u/0my9Byd1IiuxJkWFPe90uc21wziefl1e6DysC3ipPkcHUPsj+/yvfw8vAwkySja97Z1xkZGszMP2j2djeD7OfDsM3hfg5RZOaQb9rGfs0oQ65ma3JuSeR+Y7vdfg19/uRakL17k7+qqvo8/Lf8e5S/QQoR4x9+2u0w0uGpurCPyl1akx9pPZc9gkRRgUpKJYAgpUaWcUUhgCBRMFJJqQQQpNTIMq4oBBAkCkYqKZVAMYL0AZIf6vxRaqAYVx4Ciudlkx9C7kYUvJtXCvbbQro8SGgVAnoCU/Z3va9dJYiB7Qh6SpT0TCDoSf2v5zUaWgiioUYZAwTmEcTQzlsDzOnCUgg0TRM8IQQXGO5BZOvB96WAoZ8Q0O7UVgkiuC29XEP4ITCBgGqntloQS28BToDDJb4JBH+9e9bXvLvC3Iv4zroljF67tIoiyHA/ct//Ux4E8gcBUwRivOejXmLtk5CZJOersqaiQmesEJAzl+9CX8J63/kogux9syWzSbSXa6yQph+LIxD8vOPYCKMJsndfIu+U/y2izPG67OJCR4eTEJBtJB8+fPgR++3Q6IK8H/3w2mYSKFQKgbZtX89dRo1RTC4IIYTAkgkgyJKjR9+TE0CQ5IhpYMkEEGTJ0aPvyQkgSHLENLBkAgiy5OjR9+QEECQ5YhpYMgEEWXL06HtyAgiSHDENLJkAgiw5evQ9OQEESY6YBpZMIJogw6/fXi0Zxlx9ZxNnWtLyHkisPVpnCTJI8cAW97QBp3Y9gXN/914tyLBLl5NN9LGj5EwEtL9gJd1TCTLMHC8zjY9mIBCDgOolKpUgHPkTI17UMTeBtm2vQ98dUQnC4dVzh5b2YhDQ3I8EC8LyKkaoqCMTgeBlVrAg3JxnCi3NxiCQXhDpJae7x4gVdWQgEHz8aPAMgiAZwkqTZxPQnrCoEoRzec+OFxXMTyB49lA/B5GCnKY4f4RpUU0g+N5j15JqBtkV3m016Z9UXrG/SB08CiYiIE/Q67r+1jTNk7aJswTZb5QD4qaHQDbSTb+aKzUEQh8IHmsjmiCaQVAGAtYJIIj1CNG/rAQQJCt+GrdOAEGsR4j+ZSWAIFnx07h1AghiPUL0LysBBMmKn8atE0AQ6xGif1kJIEhW/DRunQCCWI8Q/ctKAEGy4qdx6wQQxHqE6F9WAgiSFT+NWyeAINYjRP+yEkCQrPhp3DoBBLEeIfqXlQCCZMVP49YJIIj1CNG/rAT+BReHOlDuccuZAAAAAElFTkSuQmCC;movable=1;resizable=1;rotatable=1;deletable=1;editable=1;locked=0;connectable=1;" vertex="1" parent="sONiJ3JfSdFnRZ6K4tha-34">
          <mxGeometry width="80" height="80" as="geometry" />
        </mxCell>
        <mxCell id="sONiJ3JfSdFnRZ6K4tha-31" value="&lt;font style=&quot;font-size: 16px;&quot;&gt;孪生大屏&lt;/font&gt;" style="text;html=1;align=center;verticalAlign=middle;whiteSpace=wrap;rounded=0;movable=1;resizable=1;rotatable=1;deletable=1;editable=1;locked=0;connectable=1;" vertex="1" parent="sONiJ3JfSdFnRZ6K4tha-34">
          <mxGeometry y="80" width="80" height="30" as="geometry" />
        </mxCell>
        <mxCell id="sONiJ3JfSdFnRZ6K4tha-32" value="&lt;font style=&quot;font-size: 16px;&quot;&gt;（内网）&lt;/font&gt;" style="text;html=1;align=center;verticalAlign=middle;whiteSpace=wrap;rounded=0;movable=1;resizable=1;rotatable=1;deletable=1;editable=1;locked=0;connectable=1;" vertex="1" parent="sONiJ3JfSdFnRZ6K4tha-34">
          <mxGeometry x="5" y="105" width="70" height="30" as="geometry" />
        </mxCell>
        <mxCell id="sONiJ3JfSdFnRZ6K4tha-35" value="" style="shape=image;verticalLabelPosition=bottom;labelBackgroundColor=default;verticalAlign=top;aspect=fixed;imageAspect=0;image=data:image/png,iVBORw0KGgoAAAANSUhEUgAAAMgAAADICAYAAACtWK6eAAAAAXNSR0IArs4c6QAACMZJREFUeF7tneF1FEcQBodIjCOxiQSIxBAJIhIgEpEJvpGPZ/Se0M70XvWqd2p/8WOne6b6K1YHp7tXzUsCEvgtgVeykYAEfk9AQUyHBJ4hoCDGQwIKYgYkECPgEyTGzVWLEFCQRQbtMWMEFCTGzVWLEFCQRQbtMWMEFCTGzVWLEFCQRQbtMWMEFCTGzVWLEFCQRQbtMWMEFCTGzVWLEFCQRQbtMWMEFCTGzVWLEFCQRQbtMWMEFCTGzVWLEFCQRQbtMWMEFCTGzVWLEFCQRQbtMWMEFCTGzVWLEFCQRQbtMWMEFCTGzVWLEFCQRQbtMWMEsgV53Vp721p711rrf652bfH6dD1btXO95P1+b619ba19u2TmLnujWwO/5X66EPe3LHhArS1eCsIO5UNr7SPb4nH1rYHfci9djopPjV8ZbPFSkFsm5ula/YnyJ9/mvw5bA7/VPvqPVD081a8tXgqSM+H+o9b7jFZbA7/VHs4SnC1eZznnreZO1nlzfW1C9kh7gpzhx6uRJ66CoHF9VDzl9cjW34i3Oq6C3IqkdX4SSHktkiXIj5PMdYuXT5DcQW/NY/du8AbXHSrI7lFZ4AkCeH7xBgpisEECeH7xBgoCxsPSeH7xBgpiikECeH7xBgoCxsPSeH7xBgpiikECeH7xBgoCxsPSeH7xBgpiikECeH7xBgoCxsPSeH7xBgpiikECeH7xBgoCxsPSeH7xBgpiikECeH7xBgoCxsPSeH7xBgpiikECeH7xBgoCxsPSeH7xBgpiikECeH7xBgoCxsPSeH7xBs5QApUJKEjl6bl3nICC4IhtUJmAglSennvHCSgIjtgGlQkoSOXpuXecgILgiG1QmYCCVJ6ee8cJKAiO2AaVCShI5em5d5yAguCIbVCZgIJUnp57xwmsKMier4E7au0fzyShf7ll/5JLL4BAliBfntj7UWEDMB5aMvJFMp39Gb4Sr3/LFHplCXKWrz9AhxEsHhHk79baU39pBbdw2DI8v3iDKzoF4TIUEWSVL1XdTV1BdiM8vICCgCNQEBBuUmkFAUErCAg3qbSCgKAVBISbVFpBQNAKAsJNKh0R5J/L3vq66heeX7yB/4qFZ1BBQMQKAsJNKq0gIGgFAeEmlVYQELSCgHCTSisICFpBQLhJpSOC9Pdh9f9Nr37h+cUb+CIdz6CCgIgVBISbVFpBQNAKAsJNKq0gIGgFAeEmlVYQELSCgHCTSkcE6b8L0n8npPqF5xdv4It0PIMKAiJWEBBuUmkFAUErCAg3qbSCgKAVBISbVFpBQNAKAsJNKh0R5L61tudTZZKOttkGzy/ewBfpm0Pee4OC7CX4zHoFAeEmlVYQELSCgHCTSisICFpBQLhJpRUEBK0gINyk0hFBzvJBfnh+8Qa+SMc1URAQcZYgZ/gcWHAMu0p/vvyT7d1khbPM4zQfXj05P2+XwMsgkPUEeRmndRcSmCSgIJPAvH0tAgqy1rw97SQBBZkE5u1rEVCQtebtaScJKMgkMG9fi4CCrDVvTztJQEEmgXn7WgQUZK15e9pJAgoyCczb1yKgIGvN29NOElCQSWDevhYBBVlr3p52kkCWIKu8vbp/OeYZPtJzMkaH3X6at7uv8htsZ/limsMSP9kY/wseb3A9sIJMTt7bhwjg+cUbKMjQoL0pRgDPL95AQWKTd9UQATy/eAMFGRq0N8UI4PnFGyhIbPKuGiKA5xdvoCBDg/amGAE8v3gDBYlN3lVDBPD84g0UZGjQ3hQjgOcXb6Agscm7aogAnl+8gYIMDdqbYgTw/OINFCQ2eVcNEcDzizdQkKFBe1OMAJ5fvIGCxCbvqiECeH7xBgoyNGhvihHA84s3UJDY5F01RADPL95AQYYG7U0xAnh+8QYKEpu8q4YI4PnFGyjI0KC9KUYAzy/eQEFik3fVEAE8v3gDBRkatDfFCOD5xRsoSGzyrhoigOcXb6AgQ4P2phgBPL94AwWJTd5VQwTw/OINFGRo0N4UI4DnF2+gILHJu2qIAJ5fvIGCDA3am2IE8PziDRQkNnlXDRHA84s3UJChQXtTjACeX7zB9dz9U8/PcH3cOET/ZPe/znDQImfYmsfuY2QJsnujFpDAEQQU5Ajq9ixDQEHKjMqNHkFAQY6gbs8yBBSkzKjc6BEEFOQI6vYsQ0BByozKjR5BQEGOoG7PMgQUpMyo3OgRBBTkCOr2LENAQcqMyo0eQUBBjqBuzzIEsgT5UYZIvY1+aK3NvmnvLPPA84s3uObtLAN5ifooCDgVBQHhJpWOCHLfWnudtD+yDZ5fvIFPEDIfD7UVBESsICDcpNIKAoJWEBBuUmkFAUErCAg3qXREkC+ttf7rwdUvPL94A1+D4BlUEBCxgoBwk0orCAhaQUC4SaUVBAStICDcpNIKAoJWEBBuUumIIJ9aa++S9ke2wfOLN/BFOpmPh9oKAiJWEBBuUmkFAUErCAg3qbSCgKAVBISbVDoiSP+s5L6u+oXnF2/gaxA8gwoCIlYQEG5SaQUBQWcJcpb3/oCjCJdWkDC67YVZgpzlZ95tovl3RATp/wfS/y+k+oXnF29wnUB/52h/injdnsCqgty11t7fHufjilmC9K4+RZhprirIm8tb9r8ySP+vmilI/x3o/lg/w+8h0HOZqb+iIClPjz6ETEF6vy7J28sfzvBv8DMhJu+NCFL5R97IecP8swX5udE+oC5KF8YnSnh8DwsjgakmyPdLVvpT41vGj1W/juMoQfZFwtUSSCKgIEmgbVOTgILUnJu7TiKgIEmgbVOTgILUnJu7TiKgIEmgbVOTgILUnJu7TiKgIEmgbVOTgILUnJu7TiKgIEmgbVOTgILUnJu7TiKgIEmgbVOTgILUnJu7TiKgIEmgbVOTgILUnJu7TiKgIEmgbVOTgILUnJu7TiKgIEmgbVOTgILUnJu7TiKgIEmgbVOTgILUnJu7TiKgIEmgbVOTgILUnJu7TiKgIEmgbVOTgILUnJu7TiLwL5WnJ9iAt8sIAAAAAElFTkSuQmCC;" vertex="1" parent="1">
          <mxGeometry x="315" y="485" width="80" height="80" as="geometry" />
        </mxCell>
        <mxCell id="sONiJ3JfSdFnRZ6K4tha-37" value="" style="endArrow=classic;startArrow=classic;html=1;rounded=0;entryX=0.43;entryY=1.022;entryDx=0;entryDy=0;entryPerimeter=0;exitX=0.43;exitY=-0.003;exitDx=0;exitDy=0;exitPerimeter=0;" edge="1" parent="1" source="sONiJ3JfSdFnRZ6K4tha-2" target="sONiJ3JfSdFnRZ6K4tha-11">
          <mxGeometry width="50" height="50" relative="1" as="geometry">
            <mxPoint x="679" y="330" as="sourcePoint" />
            <mxPoint x="750" y="480" as="targetPoint" />
          </mxGeometry>
        </mxCell>
        <mxCell id="sONiJ3JfSdFnRZ6K4tha-39" value="&lt;font style=&quot;font-size: 16px;&quot;&gt;Nginx&lt;/font&gt;" style="text;html=1;align=center;verticalAlign=middle;whiteSpace=wrap;rounded=0;" vertex="1" parent="1">
          <mxGeometry x="710" y="465" width="90" height="40" as="geometry" />
        </mxCell>
        <mxCell id="sONiJ3JfSdFnRZ6K4tha-40" value="&lt;font style=&quot;font-size: 16px;&quot;&gt;MySQL&lt;/font&gt;" style="text;html=1;align=center;verticalAlign=middle;whiteSpace=wrap;rounded=0;" vertex="1" parent="1">
          <mxGeometry x="787" y="465" width="90" height="40" as="geometry" />
        </mxCell>
        <mxCell id="sONiJ3JfSdFnRZ6K4tha-41" value="" style="endArrow=none;html=1;rounded=0;exitX=0.997;exitY=0.525;exitDx=0;exitDy=0;exitPerimeter=0;entryX=-0.002;entryY=0.412;entryDx=0;entryDy=0;entryPerimeter=0;" edge="1" parent="1" source="sONiJ3JfSdFnRZ6K4tha-36" target="sONiJ3JfSdFnRZ6K4tha-2">
          <mxGeometry width="50" height="50" relative="1" as="geometry">
            <mxPoint x="700" y="410" as="sourcePoint" />
            <mxPoint x="750" y="360" as="targetPoint" />
          </mxGeometry>
        </mxCell>
        <mxCell id="sONiJ3JfSdFnRZ6K4tha-45" value="" style="rounded=0;whiteSpace=wrap;html=1;dashed=1;" vertex="1" parent="1">
          <mxGeometry x="710" y="550" width="240" height="60" as="geometry" />
        </mxCell>
        <mxCell id="sONiJ3JfSdFnRZ6K4tha-42" value="&lt;font style=&quot;font-size: 16px;&quot;&gt;&lt;b&gt;应用客户端&lt;/b&gt;&lt;/font&gt;" style="text;html=1;align=center;verticalAlign=middle;whiteSpace=wrap;rounded=0;" vertex="1" parent="1">
          <mxGeometry x="785" y="565" width="90" height="30" as="geometry" />
        </mxCell>
        <mxCell id="sONiJ3JfSdFnRZ6K4tha-43" value="&lt;font style=&quot;font-size: 16px;&quot;&gt;JDK&lt;/font&gt;" style="text;html=1;align=center;verticalAlign=middle;whiteSpace=wrap;rounded=0;" vertex="1" parent="1">
          <mxGeometry x="860" y="465" width="90" height="40" as="geometry" />
        </mxCell>
      </root>
    </mxGraphModel>
  </diagram>
</mxfile>
